<mxfile host="app.diagrams.net" modified="2020-12-08T18:02:08.999Z" agent="5.0 (X11)" etag="IjomRFG4ViPD54M16iPJ" version="13.11.0" type="github">
  <diagram id="lBYI-6_kbnqf_TE1h6tL" name="Page-1">
    <mxGraphModel dx="1137" dy="722" grid="1" gridSize="10" guides="1" tooltips="1" connect="1" arrows="1" fold="1" page="1" pageScale="1" pageWidth="850" pageHeight="1100" background="#F1FAEE" math="0" shadow="0">
      <root>
        <mxCell id="0" />
        <mxCell id="1" parent="0" />
        <mxCell id="6h2gYpj5qwFoqBSHDf5x-1" value="StandardMessages" style="swimlane;fontStyle=1;align=center;verticalAlign=top;childLayout=stackLayout;horizontal=1;startSize=26;horizontalStack=0;resizeParent=1;resizeParentMax=0;resizeLast=0;collapsible=1;marginBottom=0;fillColor=#A8DADC;strokeColor=#457B9D;fontColor=#1D3557;sketch=1;" vertex="1" parent="1">
          <mxGeometry x="30" y="30" width="310" height="112" as="geometry" />
        </mxCell>
        <mxCell id="6h2gYpj5qwFoqBSHDf5x-3" value="" style="line;strokeWidth=1;fillColor=none;align=left;verticalAlign=middle;spacingTop=-1;spacingLeft=3;spacingRight=3;rotatable=0;labelPosition=right;points=[];portConstraint=eastwest;labelBackgroundColor=#F1FAEE;strokeColor=#457B9D;fontColor=#1D3557;sketch=1;" vertex="1" parent="6h2gYpj5qwFoqBSHDf5x-1">
          <mxGeometry y="26" width="310" height="8" as="geometry" />
        </mxCell>
        <mxCell id="6h2gYpj5qwFoqBSHDf5x-4" value="+ WelcomMessage(): void" style="text;strokeColor=none;fillColor=none;align=left;verticalAlign=top;spacingLeft=4;spacingRight=4;overflow=hidden;rotatable=0;points=[[0,0.5],[1,0.5]];portConstraint=eastwest;fontColor=#1D3557;sketch=1;" vertex="1" parent="6h2gYpj5qwFoqBSHDf5x-1">
          <mxGeometry y="34" width="310" height="26" as="geometry" />
        </mxCell>
        <mxCell id="6h2gYpj5qwFoqBSHDf5x-5" value="+ EndApplication(type): type" style="text;strokeColor=none;fillColor=none;align=left;verticalAlign=top;spacingLeft=4;spacingRight=4;overflow=hidden;rotatable=0;points=[[0,0.5],[1,0.5]];portConstraint=eastwest;fontColor=#1D3557;sketch=1;" vertex="1" parent="6h2gYpj5qwFoqBSHDf5x-1">
          <mxGeometry y="60" width="310" height="26" as="geometry" />
        </mxCell>
        <mxCell id="6h2gYpj5qwFoqBSHDf5x-6" value="+ DisplayValidationError(string fieldName): void" style="text;strokeColor=none;fillColor=none;align=left;verticalAlign=top;spacingLeft=4;spacingRight=4;overflow=hidden;rotatable=0;points=[[0,0.5],[1,0.5]];portConstraint=eastwest;fontColor=#1D3557;sketch=1;" vertex="1" parent="6h2gYpj5qwFoqBSHDf5x-1">
          <mxGeometry y="86" width="310" height="26" as="geometry" />
        </mxCell>
        <mxCell id="6h2gYpj5qwFoqBSHDf5x-7" value="Person" style="swimlane;fontStyle=1;align=center;verticalAlign=top;childLayout=stackLayout;horizontal=1;startSize=26;horizontalStack=0;resizeParent=1;resizeParentMax=0;resizeLast=0;collapsible=1;marginBottom=0;rounded=0;strokeColor=#457B9D;fillColor=#A8DADC;fontColor=#1D3557;sketch=1;" vertex="1" parent="1">
          <mxGeometry x="620" y="130" width="160" height="86" as="geometry" />
        </mxCell>
        <mxCell id="6h2gYpj5qwFoqBSHDf5x-11" value="+ FirstName: string" style="text;strokeColor=none;fillColor=none;align=left;verticalAlign=top;spacingLeft=4;spacingRight=4;overflow=hidden;rotatable=0;points=[[0,0.5],[1,0.5]];portConstraint=eastwest;sketch=1;" vertex="1" parent="6h2gYpj5qwFoqBSHDf5x-7">
          <mxGeometry y="26" width="160" height="26" as="geometry" />
        </mxCell>
        <mxCell id="6h2gYpj5qwFoqBSHDf5x-8" value="+ LastName: string" style="text;strokeColor=none;fillColor=none;align=left;verticalAlign=top;spacingLeft=4;spacingRight=4;overflow=hidden;rotatable=0;points=[[0,0.5],[1,0.5]];portConstraint=eastwest;sketch=1;" vertex="1" parent="6h2gYpj5qwFoqBSHDf5x-7">
          <mxGeometry y="52" width="160" height="26" as="geometry" />
        </mxCell>
        <mxCell id="6h2gYpj5qwFoqBSHDf5x-9" value="" style="line;strokeWidth=1;fillColor=none;align=left;verticalAlign=middle;spacingTop=-1;spacingLeft=3;spacingRight=3;rotatable=0;labelPosition=right;points=[];portConstraint=eastwest;sketch=1;" vertex="1" parent="6h2gYpj5qwFoqBSHDf5x-7">
          <mxGeometry y="78" width="160" height="8" as="geometry" />
        </mxCell>
        <mxCell id="6h2gYpj5qwFoqBSHDf5x-12" value="PersonDataCapture" style="swimlane;fontStyle=1;align=center;verticalAlign=top;childLayout=stackLayout;horizontal=1;startSize=26;horizontalStack=0;resizeParent=1;resizeParentMax=0;resizeLast=0;collapsible=1;marginBottom=0;fillColor=#A8DADC;strokeColor=#457B9D;fontColor=#1D3557;sketch=1;" vertex="1" parent="1">
          <mxGeometry x="370" y="130" width="200" height="60" as="geometry" />
        </mxCell>
        <mxCell id="6h2gYpj5qwFoqBSHDf5x-13" value="" style="line;strokeWidth=1;fillColor=none;align=left;verticalAlign=middle;spacingTop=-1;spacingLeft=3;spacingRight=3;rotatable=0;labelPosition=right;points=[];portConstraint=eastwest;labelBackgroundColor=#F1FAEE;strokeColor=#457B9D;fontColor=#1D3557;sketch=1;" vertex="1" parent="6h2gYpj5qwFoqBSHDf5x-12">
          <mxGeometry y="26" width="200" height="8" as="geometry" />
        </mxCell>
        <mxCell id="6h2gYpj5qwFoqBSHDf5x-14" value="+ Capture(): Person" style="text;strokeColor=none;fillColor=none;align=left;verticalAlign=top;spacingLeft=4;spacingRight=4;overflow=hidden;rotatable=0;points=[[0,0.5],[1,0.5]];portConstraint=eastwest;fontColor=#1D3557;sketch=1;" vertex="1" parent="6h2gYpj5qwFoqBSHDf5x-12">
          <mxGeometry y="34" width="200" height="26" as="geometry" />
        </mxCell>
        <mxCell id="6h2gYpj5qwFoqBSHDf5x-17" value="PersonValidator" style="swimlane;fontStyle=1;align=center;verticalAlign=top;childLayout=stackLayout;horizontal=1;startSize=26;horizontalStack=0;resizeParent=1;resizeParentMax=0;resizeLast=0;collapsible=1;marginBottom=0;fillColor=#A8DADC;strokeColor=#457B9D;fontColor=#1D3557;sketch=1;" vertex="1" parent="1">
          <mxGeometry x="370" y="30" width="200" height="60" as="geometry" />
        </mxCell>
        <mxCell id="6h2gYpj5qwFoqBSHDf5x-18" value="" style="line;strokeWidth=1;fillColor=none;align=left;verticalAlign=middle;spacingTop=-1;spacingLeft=3;spacingRight=3;rotatable=0;labelPosition=right;points=[];portConstraint=eastwest;labelBackgroundColor=#F1FAEE;strokeColor=#457B9D;fontColor=#1D3557;sketch=1;" vertex="1" parent="6h2gYpj5qwFoqBSHDf5x-17">
          <mxGeometry y="26" width="200" height="8" as="geometry" />
        </mxCell>
        <mxCell id="6h2gYpj5qwFoqBSHDf5x-19" value="+ Validate(): bool" style="text;strokeColor=none;fillColor=none;align=left;verticalAlign=top;spacingLeft=4;spacingRight=4;overflow=hidden;rotatable=0;points=[[0,0.5],[1,0.5]];portConstraint=eastwest;fontColor=#1D3557;sketch=1;" vertex="1" parent="6h2gYpj5qwFoqBSHDf5x-17">
          <mxGeometry y="34" width="200" height="26" as="geometry" />
        </mxCell>
        <mxCell id="6h2gYpj5qwFoqBSHDf5x-20" value="AccountGenerator" style="swimlane;fontStyle=1;align=center;verticalAlign=top;childLayout=stackLayout;horizontal=1;startSize=26;horizontalStack=0;resizeParent=1;resizeParentMax=0;resizeLast=0;collapsible=1;marginBottom=0;fillColor=#A8DADC;strokeColor=#457B9D;fontColor=#1D3557;sketch=1;" vertex="1" parent="1">
          <mxGeometry x="580" y="30" width="200" height="60" as="geometry" />
        </mxCell>
        <mxCell id="6h2gYpj5qwFoqBSHDf5x-21" value="" style="line;strokeWidth=1;fillColor=none;align=left;verticalAlign=middle;spacingTop=-1;spacingLeft=3;spacingRight=3;rotatable=0;labelPosition=right;points=[];portConstraint=eastwest;labelBackgroundColor=#F1FAEE;strokeColor=#457B9D;fontColor=#1D3557;sketch=1;" vertex="1" parent="6h2gYpj5qwFoqBSHDf5x-20">
          <mxGeometry y="26" width="200" height="8" as="geometry" />
        </mxCell>
        <mxCell id="6h2gYpj5qwFoqBSHDf5x-22" value="+ CreateAccount(): void" style="text;strokeColor=none;fillColor=none;align=left;verticalAlign=top;spacingLeft=4;spacingRight=4;overflow=hidden;rotatable=0;points=[[0,0.5],[1,0.5]];portConstraint=eastwest;fontColor=#1D3557;sketch=1;" vertex="1" parent="6h2gYpj5qwFoqBSHDf5x-20">
          <mxGeometry y="34" width="200" height="26" as="geometry" />
        </mxCell>
        <mxCell id="6h2gYpj5qwFoqBSHDf5x-23" style="edgeStyle=orthogonalEdgeStyle;rounded=1;sketch=1;orthogonalLoop=1;jettySize=auto;html=1;exitX=1;exitY=0.5;exitDx=0;exitDy=0;entryX=0.5;entryY=0;entryDx=0;entryDy=0;strokeColor=#457B9D;fillColor=#A8DADC;fontColor=#1D3557;" edge="1" parent="1" source="6h2gYpj5qwFoqBSHDf5x-14" target="6h2gYpj5qwFoqBSHDf5x-7">
          <mxGeometry relative="1" as="geometry" />
        </mxCell>
      </root>
    </mxGraphModel>
  </diagram>
</mxfile>
